<svg width="16" height="16" viewBox="0 0 16 16" fill="none" xmlns="http://www.w3.org/2000/svg">
<path d="M6.71996 1.28003C3.54628 1.28003 0.959961 3.86635 0.959961 7.04003C0.959961 10.2137 3.54628 12.8 6.71996 12.8C7.87893 12.8 8.9575 12.4525 9.86246 11.86L13.8812 15.8788L15.2387 14.5213L11.2718 10.5544C12.026 9.58031 12.48 8.36314 12.48 7.04003C12.48 3.86635 9.89364 1.28003 6.71996 1.28003ZM6.71996 2.56003C9.20196 2.56003 11.2 4.55803 11.2 7.04003C11.2 9.52203 9.20196 11.52 6.71996 11.52C4.23796 11.52 2.23996 9.52203 2.23996 7.04003C2.23996 4.55803 4.23796 2.56003 6.71996 2.56003Z" fill="#BBBBBB"/>
</svg>
