<svg width="128" height="128" viewBox="0 0 128 128" fill="none" xmlns="http://www.w3.org/2000/svg">
<g clip-path="url(#clip0_2_113)">
<path d="M56.8801 0.095932C56.4481 0.127934 55.0081 0.223934 53.6801 0.319935C47.1361 0.799934 40.3361 2.36794 33.8881 4.89593C32.6241 5.39193 27.6961 7.61593 27.5521 7.75993C27.5201 7.79193 28.2241 9.19993 29.1361 10.9119C30.0321 12.6079 31.1521 14.7519 31.6481 15.6799C32.1281 16.6079 32.7841 17.8559 33.1201 18.4799C33.4561 19.0879 34.1441 20.4319 34.6721 21.4399C35.8241 23.6319 40.6561 32.8479 41.8721 35.1519L42.7201 36.7839L44.3681 35.9999C47.2481 34.6399 50.3041 33.7119 54.0161 33.1039C55.7121 32.8159 56.6881 32.7679 59.5201 32.7839C61.4081 32.7839 63.1361 32.8159 63.3601 32.8319C63.8081 32.8799 63.6801 33.6319 64.5601 26.3999C64.8641 23.8079 65.2321 20.8479 65.3601 19.8399C65.4881 18.8319 65.8561 15.9519 66.1601 13.4399C66.4641 10.9279 66.9441 7.05593 67.2161 4.81593C67.6001 1.74393 67.6801 0.735935 67.5201 0.639935C67.0721 0.367935 58.9441 -0.0480652 56.8801 0.095932Z" fill="#FFBF3C"/>
<path d="M83.728 4.92801C83.68 5.07201 83.392 5.80801 83.104 6.56001C82.368 8.44801 76.784 23.104 75.76 25.84C75.296 27.072 74.352 29.52 73.68 31.28C72.992 33.04 72.416 34.624 72.368 34.8C72.32 35.072 72.512 35.2 73.696 35.68C75.52 36.416 78.08 37.872 80.32 39.456C82.4 40.912 85.824 44.128 87.36 46.08C87.936 46.8 88.544 47.568 88.72 47.792L89.056 48.192L91.68 46.368C93.12 45.376 95.088 44.016 96.064 43.36C97.872 42.128 98.576 41.648 103.984 37.904C107.056 35.792 108.4 34.864 112.96 31.776C114.24 30.896 115.376 30.096 115.504 29.984C115.696 29.808 115.488 29.44 114.064 27.568C106.592 17.664 96.56 9.88802 85.328 5.28001C84 4.73602 83.808 4.70401 83.728 4.92801Z" fill="#FFBF3C"/>
<path d="M17.28 26.992C9.71201 34.656 4.62401 43.584 1.92001 54C-2.04799 69.2 0.352013 85.68 8.46401 99.184C11.104 103.552 13.584 106.704 17.36 110.496C23.024 116.176 29.008 120.208 36.4 123.36C45.968 127.44 57.312 128.88 67.824 127.36C84.592 124.912 99.392 115.536 108.72 101.44C109.616 100.08 110.688 98.368 111.088 97.648L111.808 96.336L107.232 93.936C104.704 92.624 101.888 91.152 100.96 90.672C91.136 85.504 91.296 85.584 91.072 85.872C90.96 86.032 90.448 86.832 89.952 87.632C88.528 89.952 87.184 91.68 85.248 93.696C78.784 100.4 70.48 104.16 60.8 104.72C58.416 104.864 55.088 104.592 52.16 104C41.264 101.824 31.808 94.528 26.976 84.56C24.624 79.744 23.568 75.44 23.408 70.08C23.312 66.544 23.488 64.208 24.064 61.44C25.536 54.496 28.64 48.704 33.664 43.552L35.424 41.76L34.928 41.232C34.656 40.96 31.904 37.84 28.784 34.32C20.416 24.832 20.096 24.48 19.936 24.48C19.84 24.48 18.656 25.616 17.28 26.992Z" fill="white"/>
<path d="M116.16 47.376C112.24 48.864 107.024 50.848 104.56 51.76C102.096 52.688 99.936 53.52 99.76 53.6C99.584 53.68 98.08 54.256 96.416 54.88C94.752 55.488 93.36 56.032 93.328 56.064C93.28 56.096 93.488 56.832 93.76 57.712C95.616 63.504 96 70.224 94.8 75.824C94.656 76.48 94.576 77.088 94.608 77.184C94.656 77.296 95.04 77.456 95.456 77.568C95.888 77.664 101.312 79.008 107.52 80.544C113.728 82.08 120.32 83.712 122.16 84.16C124.016 84.624 125.616 85.008 125.744 85.024C126.016 85.04 126.336 83.696 126.96 80.112C128.8 69.28 127.888 57.488 124.416 47.168C123.968 45.84 123.536 44.736 123.44 44.704C123.36 44.688 120.08 45.888 116.16 47.376Z" fill="#FFBF3C"/>
<path d="M56.9601 46.56C47.1521 47.632 39.28 54.864 37.344 64.56C36.912 66.768 36.864 70.016 37.248 72.24C38.944 82.048 46.0961 89.152 55.9681 90.8C57.9681 91.136 61.8081 91.056 63.6801 90.656C68.0161 89.696 71.632 87.808 74.6561 84.928C77.8721 81.84 79.8401 78.448 81.0081 74C81.4881 72.16 81.5041 71.936 81.5201 68.88C81.5201 65.472 81.3921 64.56 80.5441 61.872C77.7601 53.04 69.5361 46.832 60.1601 46.496C59.0561 46.448 57.6161 46.48 56.9601 46.56Z" fill="#FFBF3C"/>
</g>
<defs>
<clipPath id="clip0_2_113">
<rect width="128" height="128" fill="white"/>
</clipPath>
</defs>
</svg>
